<svg width="16" height="16" viewBox="0 0 16 16" fill="none" xmlns="http://www.w3.org/2000/svg">
<path d="M8 0C9.45139 0 10.7899 0.365248 12.0156 1.09574C13.2413 1.82624 14.2118 2.81738 14.9271 4.06915C15.6424 5.32092 16 6.68794 16 8.17021C16 9.95035 15.4913 11.5514 14.474 12.9734C13.4566 14.3954 12.1424 15.3794 10.5312 15.9255C10.3438 15.961 10.2049 15.9362 10.1146 15.8511C10.0243 15.766 9.97917 15.6596 9.97917 15.5319C9.97917 15.5106 9.9809 15.2394 9.98438 14.7181C9.98785 14.1968 9.98958 13.7199 9.98958 13.2872C9.98958 12.5993 9.80903 12.0957 9.44792 11.7766C9.84375 11.734 10.1997 11.6702 10.5156 11.5851C10.8316 11.5 11.158 11.3617 11.4948 11.1702C11.8316 10.9787 12.1128 10.7429 12.3385 10.4628C12.5642 10.1826 12.7483 9.81028 12.8906 9.34574C13.033 8.88121 13.1042 8.34752 13.1042 7.74468C13.1042 6.90071 12.8299 6.17021 12.2812 5.55319C12.5382 4.9078 12.5104 4.1844 12.1979 3.38298C12.0035 3.31915 11.7222 3.35816 11.3542 3.5C10.9861 3.64184 10.6667 3.79787 10.3958 3.96809L10 4.2234C9.35417 4.03901 8.6875 3.94681 8 3.94681C7.3125 3.94681 6.64583 4.03901 6 4.2234C5.88889 4.14539 5.74132 4.04965 5.55729 3.93617C5.37326 3.8227 5.08333 3.68617 4.6875 3.5266C4.29167 3.36702 3.99653 3.31915 3.80208 3.38298C3.48958 4.1844 3.46181 4.9078 3.71875 5.55319C3.17014 6.17021 2.89583 6.90071 2.89583 7.74468C2.89583 8.34752 2.96701 8.87943 3.10938 9.34043C3.25174 9.80142 3.43403 10.1738 3.65625 10.4574C3.87847 10.7411 4.15799 10.9787 4.49479 11.1702C4.8316 11.3617 5.15799 11.5 5.47396 11.5851C5.78993 11.6702 6.14583 11.734 6.54167 11.7766C6.27083 12.0319 6.10069 12.3972 6.03125 12.8723C5.88542 12.9433 5.72917 12.9965 5.5625 13.0319C5.39583 13.0674 5.19792 13.0851 4.96875 13.0851C4.73958 13.0851 4.51215 13.0089 4.28646 12.8564C4.06076 12.7039 3.86806 12.4823 3.70833 12.1915C3.57639 11.9645 3.40799 11.7801 3.20312 11.6383C2.99826 11.4965 2.82639 11.4113 2.6875 11.383L2.47917 11.3511C2.33333 11.3511 2.23264 11.367 2.17708 11.3989C2.12153 11.4309 2.10417 11.4716 2.125 11.5213C2.14583 11.5709 2.17708 11.6206 2.21875 11.6702C2.26042 11.7199 2.30556 11.7624 2.35417 11.7979L2.42708 11.8511C2.57986 11.922 2.7309 12.0567 2.88021 12.2553C3.02951 12.4539 3.13889 12.6348 3.20833 12.7979L3.3125 13.0426C3.40278 13.3121 3.55556 13.5301 3.77083 13.6968C3.98611 13.8635 4.21875 13.9699 4.46875 14.016C4.71875 14.0621 4.96007 14.0869 5.19271 14.0904C5.42535 14.094 5.61806 14.0816 5.77083 14.0532L6.01042 14.0106C6.01042 14.2801 6.01215 14.594 6.01562 14.9521C6.0191 15.3103 6.02083 15.5035 6.02083 15.5319C6.02083 15.6596 5.97569 15.766 5.88542 15.8511C5.79514 15.9362 5.65625 15.961 5.46875 15.9255C3.85764 15.3794 2.5434 14.3954 1.52604 12.9734C0.508681 11.5514 0 9.95035 0 8.17021C0 6.68794 0.357639 5.32092 1.07292 4.06915C1.78819 2.81738 2.75868 1.82624 3.98438 1.09574C5.21007 0.365248 6.54861 0 8 0ZM3.03125 11.734C3.05208 11.6844 3.02778 11.6418 2.95833 11.6064C2.88889 11.5851 2.84375 11.5922 2.82292 11.6277C2.80208 11.6773 2.82639 11.7199 2.89583 11.7553C2.95833 11.7979 3.00347 11.7908 3.03125 11.734ZM3.35417 12.0957C3.40278 12.0603 3.39583 12.0035 3.33333 11.9255C3.26389 11.8617 3.20833 11.8511 3.16667 11.8936C3.11806 11.9291 3.125 11.9858 3.1875 12.0638C3.25694 12.1348 3.3125 12.1454 3.35417 12.0957ZM3.66667 12.5745C3.72917 12.5248 3.72917 12.4574 3.66667 12.3723C3.61111 12.2801 3.55208 12.2589 3.48958 12.3085C3.42708 12.344 3.42708 12.4078 3.48958 12.5C3.55208 12.5922 3.61111 12.617 3.66667 12.5745ZM4.10417 13.0213C4.15972 12.9645 4.14583 12.8972 4.0625 12.8191C3.97917 12.734 3.90972 12.7234 3.85417 12.7872C3.79167 12.844 3.80556 12.9113 3.89583 12.9894C3.97917 13.0745 4.04861 13.0851 4.10417 13.0213ZM4.69792 13.2872C4.71875 13.2092 4.67361 13.1525 4.5625 13.117C4.45833 13.0887 4.39236 13.1135 4.36458 13.1915C4.33681 13.2695 4.38194 13.3227 4.5 13.3511C4.60417 13.3936 4.67014 13.3723 4.69792 13.2872ZM5.35417 13.3404C5.35417 13.2482 5.29514 13.2092 5.17708 13.2234C5.06597 13.2234 5.01042 13.2624 5.01042 13.3404C5.01042 13.4326 5.06944 13.4716 5.1875 13.4574C5.29861 13.4574 5.35417 13.4184 5.35417 13.3404ZM5.95833 13.234C5.94444 13.156 5.88194 13.1241 5.77083 13.1383C5.65972 13.1596 5.61111 13.2128 5.625 13.2979C5.63889 13.383 5.70139 13.4113 5.8125 13.383C5.92361 13.3546 5.97222 13.305 5.95833 13.234Z" fill="white"/>
</svg>
