<svg width="15" height="16" viewBox="0 0 15 16" fill="none" xmlns="http://www.w3.org/2000/svg">
<path d="M9.61914 8.78001C9.70378 8.78001 10.0212 8.92668 10.5713 9.22001C11.1214 9.51334 11.4128 9.69001 11.4453 9.75001C11.4583 9.78334 11.4648 9.83334 11.4648 9.90001C11.4648 10.12 11.4095 10.3733 11.2988 10.66C11.1947 10.92 10.9635 11.1383 10.6055 11.315C10.2474 11.4917 9.91536 11.58 9.60938 11.58C9.23828 11.58 8.61979 11.3733 7.75391 10.96C7.11589 10.66 6.5625 10.2667 6.09375 9.78001C5.625 9.29334 5.14323 8.67668 4.64844 7.93001C4.17969 7.21668 3.94857 6.57001 3.95508 5.99001V5.91001C3.97461 5.30334 4.21549 4.77668 4.67773 4.33001C4.83398 4.18334 5.00326 4.11001 5.18555 4.11001C5.22461 4.11001 5.2832 4.11501 5.36133 4.12501C5.43945 4.13501 5.5013 4.14001 5.54688 4.14001C5.67057 4.14001 5.75684 4.16168 5.80566 4.20501C5.85449 4.24834 5.90495 4.34001 5.95703 4.48001C6.00911 4.61334 6.11654 4.90668 6.2793 5.36001C6.44206 5.81334 6.52344 6.06334 6.52344 6.11001C6.52344 6.25001 6.41113 6.44168 6.18652 6.68501C5.96191 6.92834 5.84961 7.08334 5.84961 7.15001C5.84961 7.19668 5.86589 7.24668 5.89844 7.30001C6.11979 7.78668 6.45182 8.24334 6.89453 8.67001C7.25911 9.02334 7.75065 9.36001 8.36914 9.68001C8.44727 9.72668 8.51888 9.75001 8.58398 9.75001C8.68164 9.75001 8.85742 9.58834 9.11133 9.26501C9.36523 8.94168 9.5345 8.78001 9.61914 8.78001ZM7.63672 14.08C8.46354 14.08 9.25618 13.9133 10.0146 13.58C10.7731 13.2467 11.4258 12.8 11.9727 12.24C12.5195 11.68 12.9557 11.0117 13.2812 10.235C13.6068 9.45834 13.7695 8.64668 13.7695 7.80001C13.7695 6.95334 13.6068 6.14168 13.2812 5.36501C12.9557 4.58834 12.5195 3.92001 11.9727 3.36001C11.4258 2.80001 10.7731 2.35334 10.0146 2.02001C9.25618 1.68668 8.46354 1.52001 7.63672 1.52001C6.8099 1.52001 6.01725 1.68668 5.25879 2.02001C4.50033 2.35334 3.84766 2.80001 3.30078 3.36001C2.75391 3.92001 2.31771 4.58834 1.99219 5.36501C1.66667 6.14168 1.50391 6.95334 1.50391 7.80001C1.50391 9.15334 1.89453 10.38 2.67578 11.48L1.9043 13.81L4.26758 13.04C5.29622 13.7333 6.41927 14.08 7.63672 14.08ZM7.63672 0.26001C8.63281 0.26001 9.58496 0.46001 10.4932 0.86001C11.4014 1.26001 12.1842 1.79668 12.8418 2.47001C13.4993 3.14334 14.0234 3.94501 14.4141 4.87501C14.8047 5.80501 15 6.78001 15 7.80001C15 8.82001 14.8047 9.79501 14.4141 10.725C14.0234 11.655 13.4993 12.4567 12.8418 13.13C12.1842 13.8033 11.4014 14.34 10.4932 14.74C9.58496 15.14 8.63281 15.34 7.63672 15.34C6.36719 15.34 5.17904 15.0267 4.07227 14.4L0 15.74L1.32812 11.69C0.625 10.5033 0.273438 9.20668 0.273438 7.80001C0.273438 6.78001 0.46875 5.80501 0.859375 4.87501C1.25 3.94501 1.77409 3.14334 2.43164 2.47001C3.08919 1.79668 3.87207 1.26001 4.78027 0.86001C5.68848 0.46001 6.64062 0.26001 7.63672 0.26001Z" fill="white"/>
</svg>
