<svg width="34" height="30" viewBox="0 0 34 30" fill="none" xmlns="http://www.w3.org/2000/svg">
<path d="M28.5529 0L5.58952 0C2.96639 0 0.831909 1.97159 0.831909 4.39453L0.831909 25.6055C0.831909 28.0284 2.96639 30 5.58952 30L15.1682 30L15.1682 19.3945L11.3621 19.3945L11.3621 14.1211H15.1682V10.5469C15.1682 7.63893 17.7291 5.27344 20.8773 5.27344L26.6499 5.27344L26.6499 10.5469H20.8773V14.1211H26.6499L25.6984 19.3945H20.8773V30H28.5529C31.1761 30 33.3105 28.0284 33.3105 25.6055L33.3105 4.39453C33.3105 1.97159 31.1761 0 28.5529 0Z" fill="black"/>
</svg>
