<svg width="33" height="30" viewBox="0 0 33 30" fill="none" xmlns="http://www.w3.org/2000/svg">
<path d="M0.50714 9.375L0.507141 20.625C0.507141 25.8019 5.05212 30 10.6567 30L22.8362 30C28.4408 30 32.9858 25.8019 32.9858 20.625L32.9858 9.375C32.9858 4.19813 28.4408 7.79513e-07 22.8362 1.0058e-06L10.6567 1.49755e-06C5.05212 1.72384e-06 0.50714 4.19813 0.50714 9.375ZM22.8362 2.8125C26.7539 2.8125 29.9409 5.75625 29.9409 9.375L29.9409 20.625C29.9409 24.2437 26.7539 27.1875 22.8362 27.1875L10.6567 27.1875C6.73898 27.1875 3.55201 24.2437 3.55201 20.625L3.55201 9.375C3.55201 5.75625 6.73898 2.8125 10.6567 2.8125L22.8362 2.8125Z" fill="black"/>
<path d="M8.62678 15C8.62679 19.1419 12.2624 22.5 16.7464 22.5C21.2305 22.5 24.8661 19.1419 24.8661 15C24.8661 10.8581 21.2305 7.5 16.7464 7.5C12.2624 7.5 8.62678 10.8581 8.62678 15ZM21.8212 15C21.8212 17.5837 19.5437 19.6875 16.7464 19.6875C13.9472 19.6875 11.6717 17.5838 11.6717 15C11.6717 12.4163 13.9472 10.3125 16.7464 10.3125C19.5437 10.3125 21.8212 12.4162 21.8212 15Z" fill="black"/>
<path d="M9.09973 6.93715C9.09973 6.38521 8.61533 5.93777 8.01779 5.93777C7.42025 5.93777 6.93585 6.38521 6.93585 6.93715C6.93585 7.48909 7.42025 7.93652 8.01779 7.93652C8.61533 7.93652 9.09973 7.48909 9.09973 6.93715Z" fill="black"/>
</svg>
