<svg width="146" height="26" viewBox="0 0 146 26" fill="none" xmlns="http://www.w3.org/2000/svg">
<path d="M23.8956 7.52373C23.7662 7.04276 23.5126 6.60423 23.1604 6.25203C22.8082 5.89983 22.3697 5.64631 21.8888 5.51685C20.1175 5.03748 13 5.03748 13 5.03748C13 5.03748 5.8825 5.03748 4.11125 5.51685C3.63028 5.64631 3.19175 5.89983 2.83955 6.25203C2.48735 6.60423 2.23384 7.04276 2.10438 7.52373C1.77364 9.33013 1.61315 11.1636 1.625 13C1.61315 14.8364 1.77364 16.6698 2.10438 18.4762C2.23384 18.9572 2.48735 19.3957 2.83955 19.7479C3.19175 20.1001 3.63028 20.3536 4.11125 20.4831C5.8825 20.9625 13 20.9625 13 20.9625C13 20.9625 20.1175 20.9625 21.8888 20.4831C22.3697 20.3536 22.8082 20.1001 23.1604 19.7479C23.5126 19.3957 23.7662 18.9572 23.8956 18.4762C24.2264 16.6698 24.3869 14.8364 24.375 13C24.3869 11.1636 24.2264 9.33013 23.8956 7.52373ZM10.725 16.4125V9.58747L16.6319 13L10.725 16.4125Z" fill="white"/>
<g clip-path="url(#clip0)">
<path fill-rule="evenodd" clip-rule="evenodd" d="M82.3624 16.7575C82.3624 16.7575 84.3028 18.6739 84.7828 19.5607C84.7922 19.5735 84.7994 19.5877 84.8044 19.6027C85 19.9303 85.048 20.1871 84.952 20.3767C84.79 20.6899 84.2416 20.8471 84.0556 20.8603H80.626C80.3872 20.8603 79.8904 20.7979 79.2856 20.3803C78.8236 20.0575 78.364 19.5259 77.9188 19.0063C77.254 18.2347 76.6792 17.5651 76.0972 17.5651C76.0237 17.565 75.9507 17.5771 75.8812 17.6011C75.4408 17.7403 74.8816 18.3679 74.8816 20.0395C74.8816 20.5627 74.4688 20.8603 74.1796 20.8603H72.6088C72.0736 20.8603 69.2872 20.6731 66.8164 18.0679C63.7888 14.8783 61.0696 8.47993 61.0432 8.42353C60.874 8.00953 61.2292 7.78393 61.6132 7.78393H65.0764C65.5408 7.78393 65.692 8.06473 65.7976 8.31673C65.92 8.60593 66.3736 9.76273 67.1176 11.0623C68.3224 13.1767 69.0628 14.0371 69.6544 14.0371C69.7656 14.0375 69.8748 14.0085 69.9712 13.9531C70.744 13.5283 70.6 10.7683 70.564 10.1995C70.564 10.0891 70.5628 8.96713 70.1668 8.42473C69.8836 8.03593 69.4012 7.88473 69.1096 7.82953C69.1876 7.71673 69.3532 7.54393 69.5656 7.44193C70.0948 7.17793 71.0512 7.13953 72.0004 7.13953H72.5272C73.5568 7.15393 73.8232 7.21993 74.1976 7.31473C74.9512 7.49473 74.9656 7.98313 74.8996 9.64633C74.8804 10.1215 74.86 10.6567 74.86 11.2867C74.86 11.4211 74.854 11.5711 74.854 11.7235C74.8312 12.5767 74.8012 13.5379 75.4036 13.9327C75.4817 13.9814 75.572 14.0072 75.664 14.0071C75.8728 14.0071 76.498 14.0071 78.1936 11.0971C78.9376 9.81193 79.5136 8.29633 79.5532 8.18233C79.5868 8.11873 79.6876 7.93993 79.81 7.86793C79.8971 7.8216 79.9946 7.79846 80.0932 7.80073H84.1672C84.6112 7.80073 84.9124 7.86793 84.9712 8.03593C85.0696 8.30833 84.952 9.13993 83.092 11.6551C82.7788 12.0739 82.504 12.4363 82.2628 12.7531C80.5768 14.9659 80.5768 15.0775 82.3624 16.7575Z" fill="white"/>
</g>
<path d="M134.513 22.7467V13.8677H137.509L137.954 10.3913H134.513V8.17694C134.513 7.17377 134.793 6.48694 136.233 6.48694H138.057V3.38752C137.169 3.2924 136.277 3.24646 135.384 3.24994C132.737 3.24994 130.919 4.86627 130.919 7.83352V10.3848H127.943V13.8612H130.925V22.7467H134.513Z" fill="white"/>
<defs>
<clipPath id="clip0">
<rect x="61" y="2" width="24" height="24" fill="white"/>
</clipPath>
</defs>
</svg>
