<svg width="24" height="24" viewBox="0 0 24 24" fill="none" xmlns="http://www.w3.org/2000/svg">
<path d="M4 6.66667C4.26522 6.66667 4.51957 6.52619 4.70711 6.27614C4.89464 6.02609 5 5.68696 5 5.33333C5 4.97971 4.89464 4.64057 4.70711 4.39052C4.51957 4.14048 4.26522 4 4 4C3.73478 4 3.48043 4.14048 3.29289 4.39052C3.10536 4.64057 3 4.97971 3 5.33333C3 5.68696 3.10536 6.02609 3.29289 6.27614C3.48043 6.52619 3.73478 6.66667 4 6.66667V6.66667Z" fill="black"/>
<path d="M8 5.33333C8 5.68696 7.89464 6.02609 7.70711 6.27614C7.51957 6.52619 7.26522 6.66667 7 6.66667C6.73478 6.66667 6.48043 6.52619 6.29289 6.27614C6.10536 6.02609 6 5.68696 6 5.33333C6 4.97971 6.10536 4.64057 6.29289 4.39052C6.48043 4.14048 6.73478 4 7 4C7.26522 4 7.51957 4.14048 7.70711 4.39052C7.89464 4.64057 8 4.97971 8 5.33333V5.33333Z" fill="black"/>
<path d="M10 6.66667C10.2652 6.66667 10.5196 6.52619 10.7071 6.27614C10.8946 6.02609 11 5.68696 11 5.33333C11 4.97971 10.8946 4.64057 10.7071 4.39052C10.5196 4.14048 10.2652 4 10 4C9.73478 4 9.48043 4.14048 9.29289 4.39052C9.10536 4.64057 9 4.97971 9 5.33333C9 5.68696 9.10536 6.02609 9.29289 6.27614C9.48043 6.52619 9.73478 6.66667 10 6.66667V6.66667Z" fill="black"/>
<path fill-rule="evenodd" clip-rule="evenodd" d="M3 0C2.20435 0 1.44129 0.421428 0.87868 1.17157C0.31607 1.92172 0 2.93913 0 4L0 20C0 21.0609 0.31607 22.0783 0.87868 22.8284C1.44129 23.5786 2.20435 24 3 24H21C21.7956 24 22.5587 23.5786 23.1213 22.8284C23.6839 22.0783 24 21.0609 24 20V4C24 2.93913 23.6839 1.92172 23.1213 1.17157C22.5587 0.421428 21.7956 0 21 0H3ZM21 2.66667H3C2.73478 2.66667 2.48043 2.80714 2.29289 3.05719C2.10536 3.30724 2 3.64638 2 4V8H22V4C22 3.64638 21.8946 3.30724 21.7071 3.05719C21.5196 2.80714 21.2652 2.66667 21 2.66667ZM2 20V10.6667H22V20C22 20.3536 21.8946 20.6928 21.7071 20.9428C21.5196 21.1929 21.2652 21.3333 21 21.3333H3C2.73478 21.3333 2.48043 21.1929 2.29289 20.9428C2.10536 20.6928 2 20.3536 2 20V20Z" fill="black"/>
</svg>
