<svg width="33" height="30" viewBox="0 0 33 30" fill="none" xmlns="http://www.w3.org/2000/svg">
<path d="M16.6154 30C25.5863 30 32.8547 23.2863 32.8547 15C32.8547 6.71375 25.5863 0 16.6154 0C7.64455 0 0.376099 6.71375 0.376099 15C0.376099 23.2863 7.64455 30 16.6154 30ZM7.80694 14.675L23.4643 9.09875C24.1911 8.85625 24.8257 9.2625 24.5903 10.2775L24.5916 10.2762L21.9257 21.8775C21.7281 22.7 21.199 22.9 20.4587 22.5125L16.3989 19.7487L14.4407 21.4913C14.2242 21.6913 14.0415 21.86 13.622 21.86L13.9102 18.0438L21.4344 11.765C21.7619 11.4987 21.3614 11.3488 20.9297 11.6138L11.6313 17.0212L7.62289 15.8663C6.75274 15.6112 6.73379 15.0625 7.80694 14.675Z" fill="black"/>
</svg>
